<svg xmlns="http://www.w3.org/2000/svg" viewBox="0 0 512 512" width="100%" height="100%">
  <defs>
    <linearGradient id="flywiseSky" x1="0%" y1="0%" x2="100%" y2="100%">
      <stop offset="0%" stop-color="#0284c7" />
      <stop offset="50%" stop-color="#0ea5e9" />
      <stop offset="100%" stop-color="#38bdf8" />
    </linearGradient>
    <linearGradient id="flywiseGold" x1="0%" y1="0%" x2="100%" y2="100%">
      <stop offset="0%" stop-color="#f0b429" />
      <stop offset="100%" stop-color="#ffd481" />
    </linearGradient>
    <filter id="softShadow" x="-10%" y="-10%" width="120%" height="120%">
      <feDropShadow dx="0" dy="8" stdDeviation="10" flood-color="#000000" flood-opacity="0.25" />
    </filter>
  </defs>

  <!-- Squircle Base with Aviation Sky Gradient -->
  <rect width="512" height="512" rx="116" fill="url(#flywiseSky)" />
  <rect x="12" y="12" width="488" height="488" rx="104" fill="none" stroke="#ffffff" stroke-opacity="0.3" stroke-width="6" />

  <!-- Radar Telemetry Orbital Rings -->
  <circle cx="256" cy="272" r="185" fill="none" stroke="#ffffff" stroke-opacity="0.16" stroke-width="5" stroke-dasharray="12 16" />
  <circle cx="256" cy="272" r="125" fill="none" stroke="#ffffff" stroke-opacity="0.24" stroke-width="4" stroke-dasharray="8 12" />

  <!-- Live Pulse Beacon / Telemetry Dot -->
  <circle cx="396" cy="116" r="20" fill="url(#flywiseGold)" filter="url(#softShadow)" />
  <circle cx="396" cy="116" r="28" fill="none" stroke="#ffd481" stroke-opacity="0.5" stroke-width="4" />

  <!-- Supersonic Aircraft in Flight (Upward Trajectory) -->
  <g transform="translate(256, 276) rotate(-45) scale(14.5) translate(-12, -12)" filter="url(#softShadow)">
    <path
      d="M17.8 19.2 16 11l3.5-3.5C21 6 21.5 4 21 3c-1-.5-3 0-4.5 1.5L13 8 4.8 6.2c-.5-.1-.9.1-1.1.5l-.3.5c-.2.5-.1 1 .3 1.3L9 12l-2 3H4l-1 1 3 2 2 3 1-1v-3l3-2 3.5 5.3c.3.4.8.5 1.3.3l.5-.2c.4-.3.6-.7.5-1.2z"
      fill="#ffffff"
    />
  </g>
</svg>
